<?xml version="1.0" encoding="UTF-8"?>
<svg xmlns="http://www.w3.org/2000/svg" xmlns:xlink="http://www.w3.org/1999/xlink" version="1.1" id="Layer_1" x="0px" y="0px" width="100%" height="100%" viewBox="0 0 221.98 296.91" enable-background="new 0 0 221.98 296.91" xml:space="preserve"> <polygon fill="#B8E4EE" points="216.49,244.543 110.99,46.98 5.49,244.543 " data-color-group="2"/> <g> <polygon fill="#47bfca" points="146.72,108.948 74.145,110.789 57.597,138.099 166.308,141.275 " data-color-group="1"/> <polygon fill="#47bfca" points="195.644,190.689 185.045,173.198 49.067,153.176 19.229,202.418 " data-color-group="1"/> <polygon fill="#47bfca" points="198.278,203.477 3,244.543 218.98,244.543 " data-color-group="1"/> <polygon fill="#47bfca" points="137.408,90.579 110.99,46.98 81.266,96.036 " data-color-group="1"/> </g> <g> <polygon fill="#D85742" points="110.99,1 118.732,16.686 136.043,19.202 123.517,31.412 126.474,48.653 110.99,40.513 95.506,48.653 98.463,31.412 85.937,19.202 103.248,16.686 " data-color-group="0"/> <rect x="90.561" y="247.178" fill="#D85742" width="40.857" height="48.732" data-color-group="0"/> <circle fill="#D85742" cx="104.561" cy="141.176" r="8.308" data-color-group="0"/> <circle fill="#D85742" cx="142.408" cy="166.797" r="8.308" data-color-group="0"/> <circle fill="#D85742" cx="81.266" cy="184.395" r="8.308" data-color-group="0"/> <circle fill="#D85742" cx="120.298" cy="213" r="8.309" data-color-group="0"/> <circle fill="#D85742" cx="40.537" cy="223.308" r="8.308" data-color-group="0"/> <circle fill="#D85742" cx="176" cy="224.01" r="8.308" data-color-group="0"/> <circle fill="#D85742" cx="111.298" cy="92.641" r="8.308" data-color-group="0"/> </g> </svg>
