<?xml version="1.0" encoding="UTF-8"?>
<svg xmlns="http://www.w3.org/2000/svg" xmlns:xlink="http://www.w3.org/1999/xlink" version="1.1" id="Layer_1" x="0px" y="0px" width="100%" height="100%" viewBox="0 0 221.98 296.91" enable-background="new 0 0 221.98 296.91" xml:space="preserve"> <polygon fill="#b8e4ee" points="110.99,1 118.732,16.686 136.043,19.202 123.517,31.412 126.474,48.653 110.99,40.513 95.506,48.653 98.463,31.412 85.937,19.202 103.248,16.686 " data-color-group="0"/> <circle fill="#47BFCA" cx="38.196" cy="240" r="15.47" data-color-group="2"/> <circle fill="#f9d100" cx="94.607" cy="209.667" r="17.47" data-color-group="1"/> <circle fill="#47BFCA" cx="124.794" cy="171.059" r="21.137" data-color-group="2"/> <circle fill="#47BFCA" cx="142.043" cy="222.863" r="27.137" data-color-group="2"/> <circle fill="#f9d100" cx="82.941" cy="156.363" r="17.697" data-color-group="1"/> <circle fill="#f9d100" cx="114.334" cy="130.758" r="17.697" data-color-group="1"/> <circle fill="#f9d100" cx="149.394" cy="142.698" r="11.939" data-color-group="1"/> <circle fill="#f9d100" cx="179.439" cy="208.667" r="9.561" data-color-group="1"/> <circle fill="#f9d100" cx="163.939" cy="184.998" r="11.939" data-color-group="1"/> <circle fill="#f9d100" cx="86.475" cy="111.758" r="11.939" data-color-group="1"/> <circle fill="#f9d100" cx="141.728" cy="120.031" r="8.272" data-color-group="1"/> <circle fill="#f9d100" cx="68.906" cy="243.568" r="11.431" data-color-group="1"/> <circle fill="#47BFCA" cx="100.657" cy="87.151" r="13.182" data-color-group="2"/> <circle fill="#47BFCA" cx="110.078" cy="58.552" r="9.899" data-color-group="2"/> <circle fill="#f9d100" cx="121.525" cy="75.969" r="6.63" data-color-group="1"/> <circle fill="#f9d100" cx="124.793" cy="256" r="6.63" data-color-group="1"/> <circle fill="#f9d100" cx="158.939" cy="163.267" r="6.63" data-color-group="1"/> <circle fill="#f9d100" cx="163.939" cy="252" r="6.63" data-color-group="1"/> <circle fill="#f9d100" cx="76.536" cy="130.303" r="6.63" data-color-group="1"/> <circle fill="#f9d100" cx="61.676" cy="218.296" r="12.198" data-color-group="1"/> <circle fill="#f9d100" cx="92.637" cy="181.689" r="6.63" data-color-group="1"/> <circle fill="#f9d100" cx="42.848" cy="205.666" r="6.63" data-color-group="1"/> <circle fill="#47BFCA" cx="127.794" cy="98.812" r="12.661" data-color-group="2"/> <circle fill="#47BFCA" cx="62.692" cy="187.55" r="15.214" data-color-group="2"/> <circle fill="#47BFCA" cx="99.922" cy="246.35" r="16.981" data-color-group="2"/> <circle fill="#f9d100" cx="187.092" cy="240" r="15.214" data-color-group="1"/> <rect x="90.561" y="267.667" fill="#b8e4ee" width="40.858" height="28.244" data-color-group="0"/> </svg>
