<?xml version="1.0" encoding="UTF-8"?>
<svg xmlns="http://www.w3.org/2000/svg" xmlns:xlink="http://www.w3.org/1999/xlink" version="1.1" id="Layer_1" x="0px" y="0px" width="100%" height="100%" viewBox="0 0 221.98 296.91" enable-background="new 0 0 221.98 296.91" xml:space="preserve"> <polygon fill="#7BBA8B" points="110.99,1 118.732,16.686 136.043,19.202 123.517,31.412 126.474,48.653 110.99,40.513 95.506,48.653 98.463,31.412 85.937,19.202 103.248,16.686 " data-color-group="1"/> <polygon fill="#D5573A" points="206.878,256.833 193.962,226.832 107.792,202.431 180.56,195.699 166.04,161.971 111.237,146.213 155.37,137.186 138.022,96.889 128.884,94.435 136.34,92.983 116.446,46.77 110.99,43.902 105.534,46.77 98.742,62.547 113.885,69.847 93.927,73.732 78.774,108.931 113.355,118.22 71.05,126.874 57.306,158.799 113.053,174.829 47.807,180.865 35.281,209.96 105.464,229.833 26.726,229.833 15.102,256.833 90.561,256.833 90.561,295.91 131.419,295.91 131.419,256.833 " data-color-group="0"/> </svg>
